<?xml version="1.0" encoding="utf-8"?>
<!-- Generator: Adobe Illustrator 22.0.1, SVG Export Plug-In . SVG Version: 6.00 Build 0)  -->
<svg version="1.1" id="Layer_1" xmlns="http://www.w3.org/2000/svg" xmlns:xlink="http://www.w3.org/1999/xlink" x="0px" y="0px"
	 viewBox="0 0 50 50" style="enable-background:new 0 0 50 50;" xml:space="preserve">
<style type="text/css">
	.st0{fill:#FFFFFF;}
</style>
<path class="st0" d="M48.4,9.3h-5.3l4.1-4.2c0.6-0.6,0.6-1.7,0-2.3c-0.6-0.6-1.7-0.6-2.3,0l-4.2,4.1V1.6C40.7,0.7,40,0,39.1,0
	c-0.9,0-1.7,0.7-1.7,1.6v5.8c-1.7-1.1-3.6-1.9-5.5-2.2c-3.2-0.5-5.9,0.2-7.9,2.2c-1.7,1.7-8.7,10.5-14.6,19.4
	c-2.9,4.3-8.4,12.9-9.3,17.9C-0.2,46.6,0.1,48.1,1,49c1.1,1.1,2.8,1.2,4.3,0.9c5.1-1,13.6-6.5,17.9-9.3c4-2.7,16.1-11.3,19.4-14.6
	c1.9-1.9,2.7-4.7,2.2-7.9c-0.3-1.9-1.1-3.8-2.2-5.6h5.8c0.9,0,1.6-0.7,1.6-1.6C50,10,49.3,9.3,48.4,9.3z M40.3,23.6
	c-0.9,0.9-3.8,3.3-7.7,6.2L29.9,27c-0.6-0.6-1.7-0.6-2.3,0c-0.6,0.6-0.6,1.7,0,2.3l2.4,2.4c-2.5,1.9-5.3,3.9-8.1,5.8
	c-1,0.7-1.9,1.3-2.8,1.8l-3-3c-0.6-0.6-1.7-0.6-2.3,0c-0.6,0.6-0.6,1.7,0,2.3l2.5,2.5C5.8,47.5,3.6,46.8,3.4,46.7
	c-0.1-0.2-1.1-3.3,9.2-18.5c0.6-0.9,1.3-1.8,1.9-2.8l3.9,3.9c0.3,0.3,0.7,0.5,1.2,0.5s0.8-0.2,1.2-0.5c0.6-0.6,0.6-1.7,0-2.3
	l-4.3-4.3c2.1-3,4.2-5.7,5.9-7.9l3,3c0.3,0.3,0.7,0.5,1.2,0.5c0.4,0,0.8-0.2,1.2-0.5c0.6-0.6,0.6-1.7,0-2.3l-3.3-3.3
	c1-1.2,1.7-2.1,2.1-2.5c1.2-1.2,3-1.6,5-1.3c4.7,0.8,9.3,5.4,10.1,10.1C41.9,20.6,41.5,22.4,40.3,23.6z"/>
</svg>
