<?xml version="1.0" encoding="utf-8"?>
<!-- Generator: Adobe Illustrator 22.0.1, SVG Export Plug-In . SVG Version: 6.00 Build 0)  -->
<svg version="1.1" id="HopHarmonyLogo" xmlns="http://www.w3.org/2000/svg" xmlns:xlink="http://www.w3.org/1999/xlink" x="0px"
	 y="0px" viewBox="0 0 666 162" style="enable-background:new 0 0 666 162;" xml:space="preserve">
<style type="text/css">
	.st0{fill:#62BB46;}
	.st1{fill:#F99D2A;}
	.st2{fill:#99928A;}
</style>
<g id="hop">
	<path class="st0" d="M25.6,53.9v28h36.6v-28h16.6v74.9H62.2V95.9H25.6v32.9H9V53.9H25.6z"/>
	<path class="st0" d="M141.6,103.5c0,14.5-12.9,26.4-28.5,26.4c-15.5,0-28-12-28-26.4c0-14.7,12.5-26.5,28-26.5
		C128.7,76.9,141.6,88.8,141.6,103.5z M126.1,103.5c0-7.1-5.6-12.3-12.9-12.3c-7,0-12.6,5.1-12.6,12.3c0,7.2,5.7,12.3,12.6,12.3
		C120.6,115.7,126.1,110.7,126.1,103.5z"/>
	<path class="st0" d="M145.8,153V78H161v3.5c2.4-2.4,8.2-4.6,13.2-4.6c14.9,0,26.5,11.9,26.5,26.3c0,14.7-12.1,26.6-26.8,26.6
		c-4.5,0-9.9-1.5-12.8-4.7V153H145.8z M160.3,103.4c0,7.2,5.2,12.4,12.3,12.4c7,0,12.6-5.1,12.6-12.4c0-7.1-5.7-12.2-12.6-12.2
		C165.6,91.2,160.3,96.2,160.3,103.4z"/>
</g>
<g id="harmony">
	<path class="st1" d="M223.7,53.9v28h36.6v-28h16.6v74.9h-16.6V95.9h-36.6v32.9h-16.6V53.9H223.7z"/>
	<path class="st1" d="M338.1,78v50.7h-15.2v-3.6c-2.4,2.9-8.2,4.7-13.2,4.7c-14.8,0-26.5-12-26.5-26.4c0-14.7,12.1-26.5,26.5-26.5
		c4.8,0,10.8,2.2,13.2,4.6V78H338.1z M323.6,103.5c0-7.1-5.2-12.3-12.3-12.3c-7,0-12.6,5.1-12.6,12.3c0,7.2,5.7,12.3,12.6,12.3
		C318.3,115.7,323.6,110.7,323.6,103.5z"/>
	<path class="st1" d="M377.6,91.9c-1.5-0.5-3.1-0.7-4.8-0.7c-5.9,0-10.9,4.1-10.9,12.3v25.3h-15.2V78h15.2v3.5
		c3.3-3.3,7.8-4.6,12-4.6c1.3,0,2.4,0,3.7,0.2L377.6,91.9L377.6,91.9z"/>
	<path class="st1" d="M434.9,128.8h-15.2v-25.3c0-8.7-4.8-12.3-11.7-12.3c-5.7,0-10.7,5.5-10.7,12.3v25.3h-15.2V78h15.2v3.5
		c2.5-2.8,8.6-4.6,13.3-4.6c7.9,0,15.1,3.4,18.3,8c5.1-6.4,13.7-8,19.3-8c16.6,0,24.6,11.9,24.6,26.5v25.3h-15.1v-25.3
		c0-7.7-5-12.3-11.1-12.3c-6.6,0-11.7,5.5-11.7,12.3L434.9,128.8L434.9,128.8z"/>
	<path class="st1" d="M594.3,78H611l15.6,31.4L641.9,78H657l-37.1,75h-15.7l14.4-29L594.3,78z"/>
	<path class="st1" d="M570.1,76.9c-2,0-4.2,0.2-6.4,0.7c-4.7,5-10.7,10.1-18.5,14.8c-1.4,0.8-2.9,1.3-4.5,1.4v34.9h15.2v-25.3
		c0-8.1,6.2-12.3,12.9-12.3c6.2,0,11.2,4.1,11.2,12.3v25.3h15.1v-25.3C595.2,88.8,584.9,76.9,570.1,76.9z"/>
</g>
<g id="bunnyHEad">
	<path class="st2" d="M506.4,76.9c-15.5,0-28,11.9-28,26.5c0,14.5,12.5,26.4,28,26.4c15.5,0,28.5-12,28.5-26.4
		C534.8,88.8,521.9,76.9,506.4,76.9z M506.4,125.1c-12.7,0-23-9.7-23-21.6c0-12,10.3-21.7,23-21.7c12.9,0,23.4,9.7,23.4,21.7
		C529.8,115.2,519,125.1,506.4,125.1z"/>
	<path class="st2" d="M488.1,75.1c0.5,0,1-0.1,1.4-0.4c1.2-0.7,1.5-2.2,0.7-3.3c-17-23.9-10.4-48.5-7.5-56.3c2.3,1.6,6,4.6,9.6,9.7
		c5.4,7.6,11.6,21.4,10.5,44c-0.1,1.3,1,2.5,2.4,2.5s2.6-1,2.6-2.3c2.1-46.6-24.2-59.1-25.3-59.6c-0.6-0.3-1.3-0.3-1.9-0.1
		s-1.1,0.7-1.4,1.3c-0.6,1.3-15.2,32.4,6.9,63.6C486.5,74.7,487.3,75.1,488.1,75.1z"/>
	<path class="st2" d="M571.7,32.5c-0.3-1.2-1.5-1.9-2.8-1.7c-0.4,0-8.7,1.3-18.6,6.9c-9.1,5.2-21.2,15.4-27.4,34.1
		c-0.4,1.3,0.3,2.6,1.6,3s2.7-0.3,3.2-1.6c9.2-28,32.1-35.6,39.6-37.3c1,6.9,1.5,28.6-28.5,47c-1.2,0.7-1.5,2.2-0.8,3.3
		c0.5,0.7,1.3,1.1,2.1,1.1c0.5,0,0.9-0.1,1.4-0.4C580.2,63.3,571.8,32.8,571.7,32.5z"/>



	<path id="bunnyNose" class="st2" d="M509.9,106.7c-0.3-0.2-0.6-0.3-1-0.2c-1.1,0.3-2.1,0.9-3.1,1.5c-1.4,0.8-2.7,1.6-4.1,1.6
		c-1.5,0-2.8-0.8-4.1-1.6c-1.1-0.7-2.2-1.4-3.5-1.6c-0.3-0.1-0.7,0-0.9,0.3c-0.2,0.2-0.4,0.5-0.3,0.9c0.2,1.2,0.8,2.8,3.5,4.4
		c2.8,1.6,3.9,2.8,3.8,4.2c-0.1,1.6-0.6,2.7-1.2,2.8c-0.5,0.1-0.9,0.6-0.8,1.1c0,0.5,0.5,0.9,1,0.9h4.8c0.5,0,1-0.4,1-0.9
		s-0.3-1-0.8-1.1c-0.6-0.1-1.1-1.3-1.2-2.8c-0.1-1.4,1-2.6,3.8-4.2c2.7-1.6,3.3-3.1,3.5-4.3C510.3,107.3,510.2,106.9,509.9,106.7z"
		>
		<!-- This is where the bunny animation goes -->
		<animateTransform 	attributeName="transform"
							attributeType="XML"
							type="translate"
							from="0 0"
							to="0 -2"
							dur="0.25s"
							repeatCount="indefinite" 
							begin="0s; 5s; 10s; 15s; 20s; 25s; 30s; 35s; 40s; 45s; 50s; 55s;"
							end="0.5s; 5.5s; 10.5s; 15.5s; 20.5s; 25.5s; 30.5s; 35.5s; 40.5s; 45.5s; 50.5s; 55.5s;"
							fill="freeze" 
							restart="whenNotActive"
           />

	</path>

</g>
</svg>
